<svg xmlns="http://www.w3.org/2000/svg" viewBox="0 0 70.35 68.48"><defs><style>.cls-1{fill:#fff;}</style></defs><title>casa</title><g id="Camada_2" data-name="Camada 2"><g id="Camada_1-2" data-name="Camada 1"><path class="cls-1" d="M70.35,30.52v1.37a6.19,6.19,0,0,1-3.64,4,2,2,0,0,1-2.25-.31,2.94,2.94,0,0,0-.79-.58c-.21.26-.12.57-.12.85q0,14.34,0,28.68A3.68,3.68,0,0,1,61.67,68a3.77,3.77,0,0,1-1.91.48c-4.23,0-8.46,0-12.69,0a3.43,3.43,0,0,1-3.54-3.65q0-10.08,0-20.17c0-.25,0-.51,0-.76a.49.49,0,0,0-.53-.51H29.27c-1,0-1,0-1,1V64.17a4.23,4.23,0,0,1-1.14,3.2,3.76,3.76,0,0,1-2.67,1.08c-4,0-8,0-12,0a3.72,3.72,0,0,1-3.78-4c0-2.7,0-5.4,0-8.1v-21a1.22,1.22,0,0,0-.14-.85c-.5.44-1,.85-1.49,1.3a3.55,3.55,0,0,1-5.36-.09c-.16-.16-.31-.34-.48-.48-1.7-1.3-1.55-4.41.26-5.77,1.45-1.09,2.71-2.44,4.06-3.68,2.55-2.32,5.09-4.66,7.64-7l5.55-5.1,6-5.46c1.84-1.69,3.68-3.36,5.51-5.06.71-.67,1.44-1.34,2.17-2a4.12,4.12,0,0,1,5.89,0q6.27,5.53,12.58,11,7.41,6.48,14.82,13c1.11,1,2.2,1.94,3.31,2.89A3.43,3.43,0,0,1,70.35,30.52Z"/></g></g></svg>