<svg xmlns="http://www.w3.org/2000/svg" viewBox="0 0 107.42 90.33"><defs><style>.cls-1{fill:#035293;}</style></defs><title>group</title><g id="Camada_2" data-name="Camada 2"><g id="Camada_1-2" data-name="Camada 1"><path class="cls-1" d="M107.23,50.29A20.06,20.06,0,0,0,86.86,32.57c-4,0-7.89,0-11.84,0-.89,0-1.1.27-1.15,1.1a18.77,18.77,0,0,1-5,11.56c-.25.27-.63.46-.67.91.24.09.46.19.68.26A23.77,23.77,0,0,1,85,67.6c.12,1.92.08,3.84.1,5.76,0,.45,0,.68.61.65A80.81,80.81,0,0,0,94,73.15a49.09,49.09,0,0,0,13.45-4.07V50.62C107.26,50.56,107.25,50.43,107.23,50.29Z"/><path class="cls-1" d="M81.37,75.85V73.33c0-3.31.08-6.62-.78-9.88-2-7.65-9.6-14.06-17.41-14.51a154.86,154.86,0,0,0-16.55,0A20,20,0,0,0,27.72,68.45c-.11,5,0,10,0,15,0,2.15,0,2.14,2,2.75,12.46,3.74,25.11,5.28,38.06,3.22a48.86,48.86,0,0,0,12.52-3.58,1.57,1.57,0,0,0,1.11-1.7C81.33,81.37,81.37,78.61,81.37,75.85Z"/><path class="cls-1" d="M25.35,60.88c2.8-7.4,8-12.24,15.53-14.8a1.13,1.13,0,0,0-.1-.25c-.14-.16-.28-.31-.43-.46a19,19,0,0,1-5.23-11.81c-.07-.88-.39-1-1.12-1q-7.29,0-14.57,0a15.71,15.71,0,0,0-2.91.32A20.16,20.16,0,0,0,0,52.9c0,5.17,0,10.34,0,15.51,0,.77.28,1,.94,1.19a103.15,103.15,0,0,0,21.93,4.28c.76.06,1.13,0,1.07-.93-.09-1.29,0-2.58,0-3.88A22.61,22.61,0,0,1,25.35,60.88Z"/><path class="cls-1" d="M54.45,47.71A15.74,15.74,0,1,0,38.79,32,15.75,15.75,0,0,0,54.45,47.71Z"/><path class="cls-1" d="M34.52,29.46a1.64,1.64,0,0,0,.92-1.25,18.73,18.73,0,0,1,6.44-11,2,2,0,0,0,.74-1.7,15.76,15.76,0,1,0-8.1,13.91Z"/><path class="cls-1" d="M65.3,15.84a19.2,19.2,0,0,1,8.51,13.58,1,1,0,0,0,.76.84A15.73,15.73,0,1,0,80.77,0a20.86,20.86,0,0,0-3.26.28A15.86,15.86,0,0,0,64.86,14.79,1,1,0,0,0,65.3,15.84Z"/></g></g></svg>