<svg xmlns="http://www.w3.org/2000/svg" viewBox="0 0 96.35 93.79"><defs><style>.cls-1{fill:#035293;}</style></defs><title>home-footer</title><g id="Camada_2" data-name="Camada 2"><g id="Camada_1-2" data-name="Camada 1"><path class="cls-1" d="M96.35,41.8v1.88a8.48,8.48,0,0,1-5,5.49,2.75,2.75,0,0,1-3.08-.43,4.21,4.21,0,0,0-1.08-.8c-.28.37-.16.78-.16,1.17q0,19.64,0,39.28a5,5,0,0,1-2.57,4.69,5.11,5.11,0,0,1-2.61.67c-5.8,0-11.59.06-17.39,0a4.7,4.7,0,0,1-4.84-5q0-13.81,0-27.63c0-.34,0-.69,0-1a.68.68,0,0,0-.72-.71l-.75,0h-18c-1.36,0-1.37,0-1.37,1.35q0,13.57,0,27.16a5.73,5.73,0,0,1-1.56,4.39,5.11,5.11,0,0,1-3.65,1.48c-5.48,0-11,.07-16.45,0a5.09,5.09,0,0,1-5.18-5.4c0-3.7,0-7.4,0-11.09V48.49a1.68,1.68,0,0,0-.19-1.17c-.69.61-1.38,1.17-2,1.78C7.27,51.29,4.58,51.24,2.29,49a7,7,0,0,0-.67-.66c-2.31-1.78-2.11-6,.36-7.9,2-1.5,3.72-3.35,5.57-5L18,25.8l7.61-7,8.17-7.49q3.78-3.45,7.54-6.92c1-.92,2-1.83,3-2.73a5.65,5.65,0,0,1,8.06,0Q61,9.27,69.61,16.81c6.76,5.91,13.51,11.85,20.3,17.74,1.51,1.31,3,2.65,4.52,4A4.69,4.69,0,0,1,96.35,41.8Z"/></g></g></svg>