<svg xmlns="http://www.w3.org/2000/svg" viewBox="0 0 87.44 79.44"><defs><style>.cls-1{fill:#035293;}</style></defs><title>message</title><g id="Camada_2" data-name="Camada 2"><g id="Camada_1-2" data-name="Camada 1"><path class="cls-1" d="M87.29,33.43h0a.09.09,0,0,0,0-.12h0a28.87,28.87,0,0,0-.89-6.55,30.21,30.21,0,0,0-4.63-10.7h0a29.52,29.52,0,0,0-9.33-9A47.57,47.57,0,0,0,52.61.54,72.67,72.67,0,0,0,33.8.69,48.5,48.5,0,0,0,16.53,6.18,30,30,0,0,0,6.67,14.7a26,26,0,0,0-3.81,6.49,32,32,0,0,0-2.51,9.9h0c-.39.76,0,1.63-.35,2.39v5.81a.35.35,0,0,0,.14,0h0a27.93,27.93,0,0,0,1,6.67h0a17.21,17.21,0,0,0,1.05,3.66,27.88,27.88,0,0,0,4.58,8.26c.16.23.29.48.47.69a30.83,30.83,0,0,0,8.09,7,.78.78,0,0,1,.38,1.15c-.49,1.32-.93,2.67-1.39,4-1.25,3.09-3.21,5.78-4.94,8.71,1.7,0,3.27,0,4.83,0a26.62,26.62,0,0,0,10.33-1.81,23.38,23.38,0,0,0,8.61-5.5,1.05,1.05,0,0,1,1-.29,41.48,41.48,0,0,0,6.77.44,9.89,9.89,0,0,0,2.43.12h.87a11.9,11.9,0,0,0,2.6-.12h0a27.39,27.39,0,0,0,3.39-.16,54.78,54.78,0,0,0,12.1-2.29A35.77,35.77,0,0,0,78.54,60.4a27.29,27.29,0,0,0,5.84-8.8,3.83,3.83,0,0,0,.25-.44,37.9,37.9,0,0,0,2.78-15.64A6.39,6.39,0,0,0,87.29,33.43ZM32.16,64.35a1.79,1.79,0,0,0-1.89.62,22,22,0,0,1-4,3.85c-.19.13-.42.29-.35.52-.37-.13-.64.11-.91.28-.74.43-1.51.78-2.27,1.17-.47.23-.9.41-1.2,0l0-.1h0c.43-.15.43-.57.55-.9a57.6,57.6,0,0,0,1.72-6.34c.27-1.2.23-1.31-.87-1.86a34.66,34.66,0,0,1-6.62-3.85,1.35,1.35,0,0,0-.63-.32c-.11-.6-.62-.9-1-1.26A23.23,23.23,0,0,1,8.5,46.29c-.1-.29-.15-.63-.45-.82.22-.38,0-.76,0-1.13a35.81,35.81,0,0,1-.92-8,44.6,44.6,0,0,1,.15-4.48c.18-.15.12-.43.15-.65a25.26,25.26,0,0,1,7.35-15.16,1.77,1.77,0,0,0,.62-.81c.46,0,.76-.31,1.08-.56A34,34,0,0,1,28.77,8.86,61.4,61.4,0,0,1,40,7.2a67.09,67.09,0,0,1,10.89.25A44.84,44.84,0,0,1,61.78,9.8,29.06,29.06,0,0,1,72.47,16c.24.23.47.48.84.45.25.82,1,1.29,1.46,1.92a25.41,25.41,0,0,1,5.3,13.09c.09.76.13,1.52.17,2.29,0,.42.07.51.33.47,0,.05,0,.1,0,.15a1.05,1.05,0,0,0-.21.8c0,1.19-.1,2.38-.15,3.57a28,28,0,0,1-3,11.63c-.12.23-.32.46-.23.74a1.71,1.71,0,0,0-.57.65,26,26,0,0,1-12.17,9.91c-6,2.58-12.36,3.44-18.81,3.66A62.61,62.61,0,0,1,32.16,64.35Z"/></g></g></svg>