<svg xmlns="http://www.w3.org/2000/svg" viewBox="0 0 70.46 83.51"><defs><style>.cls-1{fill:#035293;}</style></defs><title>perfil</title><g id="Camada_2" data-name="Camada 2"><g id="Camada_1-2" data-name="Camada 1"><path class="cls-1" d="M70.46,83.51c0-.48-.1-1-.12-1.45a30.4,30.4,0,0,0-1.09-7.23,35.07,35.07,0,0,0-34.1-25.66,34.94,34.94,0,0,0-24.59,9.92A33.4,33.4,0,0,0,.45,78.49c-.26,1.67-.23,3.36-.45,5H8.48a1,1,0,0,1-.19-.76,27,27,0,0,1,2.19-9.48,25.94,25.94,0,0,1,6.85-9.21,26.78,26.78,0,0,1,14.78-6.48A27,27,0,0,1,48.75,61,26.28,26.28,0,0,1,59.24,71.73,23.25,23.25,0,0,1,62,81.54c0,.65.41,1.33-.05,2Z"/><path class="cls-1" d="M35.2,46.41A23.21,23.21,0,1,0,12.05,23.15,23.21,23.21,0,0,0,35.2,46.41Zm0-37.94A14.75,14.75,0,1,1,20.5,23.24,14.72,14.72,0,0,1,35.16,8.47Z"/></g></g></svg>