<svg xmlns="http://www.w3.org/2000/svg" viewBox="0 0 51.28 51.29"><defs><style>.cls-1{fill:#035293;}</style></defs><title>search</title><g id="Camada_2" data-name="Camada 2"><g id="Camada_1-2" data-name="Camada 1"><path class="cls-1" d="M51.28,18c-.13-.63-.09-1.28-.22-1.92A20,20,0,0,0,36.55.55,20.36,20.36,0,0,0,33.17,0h-.3c0,.13-.11.1-.2.08h-.4c-.08,0-.16,0-.2-.08h-1.2c0,.09-.12.1-.21.08h-.39c-.09,0-.18.05-.2-.08h-.4a7.23,7.23,0,0,1-1.23.13,18.13,18.13,0,0,0-5.8,1.8,19.38,19.38,0,0,0-6.12,4.66,20.42,20.42,0,0,0-3.95,6.73,20.16,20.16,0,0,0-1,8.72,19,19,0,0,0,2.09,7c.54,1,.58.77-.3,1.51Q7.68,35.3,2,40.12a4.41,4.41,0,0,0-2,3.22,4.09,4.09,0,0,0,.9,3.13c1.28,1.38,2.62,2.7,4,4a4.38,4.38,0,0,0,5.08,0,9.44,9.44,0,0,0,1.1-1.09q3-3.55,6-7.12l4.09-4.86c.21-.26.4-.31.67-.13a6.11,6.11,0,0,0,.65.38,19.89,19.89,0,0,0,11.3,2,19.19,19.19,0,0,0,7-2.16,19.58,19.58,0,0,0,5.87-4.68,20.52,20.52,0,0,0,4-7.43,20,20,0,0,0,.66-3.68v-.4c-.13,0-.09-.11-.08-.19v-.4c0-.09,0-.17.08-.21v-1.2a.15.15,0,0,1-.08-.2v-.6c0-.08-.05-.17.08-.2ZM31.36,30.59A10.74,10.74,0,1,1,42.17,20.06,10.71,10.71,0,0,1,31.36,30.59Z"/></g></g></svg>